<svg width="18" height="18" viewBox="0 0 18 18" fill="none" xmlns="http://www.w3.org/2000/svg">
<path d="M17.8125 11.25V16.5C17.8125 16.8481 17.6742 17.1819 17.4281 17.4281C17.1819 17.6742 16.8481 17.8125 16.5 17.8125H1.5C1.1519 17.8125 0.818064 17.6742 0.571922 17.4281C0.325781 17.1819 0.1875 16.8481 0.1875 16.5V11.25C0.1875 11.1008 0.246763 10.9577 0.352252 10.8523C0.457742 10.7468 0.600816 10.6875 0.75 10.6875C0.899184 10.6875 1.04226 10.7468 1.14775 10.8523C1.25324 10.9577 1.3125 11.1008 1.3125 11.25V16.5C1.3125 16.5497 1.33225 16.5974 1.36742 16.6326C1.40258 16.6677 1.45027 16.6875 1.5 16.6875H16.5C16.5497 16.6875 16.5974 16.6677 16.6326 16.6326C16.6677 16.5974 16.6875 16.5497 16.6875 16.5V11.25C16.6875 11.1008 16.7468 10.9577 16.8523 10.8523C16.9577 10.7468 17.1008 10.6875 17.25 10.6875C17.3992 10.6875 17.5423 10.7468 17.6477 10.8523C17.7532 10.9577 17.8125 11.1008 17.8125 11.25ZM8.6025 11.6475C8.70797 11.7528 8.85094 11.812 9 11.812C9.14906 11.812 9.29203 11.7528 9.3975 11.6475L13.1475 7.8975C13.2469 7.79087 13.301 7.64983 13.2984 7.50411C13.2958 7.35838 13.2368 7.21934 13.1337 7.11628C13.0307 7.01322 12.8916 6.95419 12.7459 6.95162C12.6002 6.94905 12.4591 7.00314 12.3525 7.1025L9.5625 9.89156V0.75C9.5625 0.600816 9.50324 0.457742 9.39775 0.352252C9.29226 0.246763 9.14918 0.1875 9 0.1875C8.85082 0.1875 8.70774 0.246763 8.60225 0.352252C8.49676 0.457742 8.4375 0.600816 8.4375 0.75V9.89156L5.6475 7.1025C5.54087 7.00314 5.39983 6.94905 5.25411 6.95162C5.10838 6.95419 4.96934 7.01322 4.86628 7.11628C4.76322 7.21934 4.70419 7.35838 4.70162 7.50411C4.69905 7.64983 4.75314 7.79087 4.8525 7.8975L8.6025 11.6475Z" fill="black"/>
</svg>
